<svg width="24" height="24" viewBox="0 0 24 24" fill="none" xmlns="http://www.w3.org/2000/svg">
<path d="M17.059 15.521C17.5268 15.2015 18.0755 15.0211 18.6416 15.0004C19.2076 14.9798 19.768 15.1199 20.2578 15.4044C20.7476 15.689 21.1469 16.1064 21.4093 16.6084C21.6718 17.1104 21.7868 17.6764 21.741 18.241C20.5412 18.6603 19.2668 18.8235 18 18.72C17.9961 17.5866 17.6697 16.4768 17.059 15.522C16.5169 14.6718 15.7691 13.972 14.8848 13.4875C14.0005 13.003 13.0083 12.7493 12 12.75C10.9918 12.7495 9.99983 13.0032 9.11573 13.4877C8.23163 13.9723 7.484 14.6719 6.942 15.522M17.999 18.719L18 18.75C18 18.975 17.988 19.197 17.963 19.416C16.1484 20.4571 14.0921 21.0033 12 21C9.83 21 7.793 20.424 6.037 19.416C6.01129 19.1846 5.99894 18.9519 6 18.719M6 18.719C4.73363 18.8263 3.45991 18.6637 2.261 18.242C2.21535 17.6776 2.33039 17.1117 2.59283 16.6099C2.85526 16.1081 3.25437 15.6908 3.744 15.4063C4.23364 15.1218 4.7938 14.9817 5.35972 15.0021C5.92564 15.0226 6.47421 15.2028 6.942 15.522M6 18.719C6.00359 17.5857 6.33162 16.4769 6.942 15.522M15 6.75C15 7.54565 14.6839 8.30871 14.1213 8.87132C13.5587 9.43393 12.7956 9.75 12 9.75C11.2044 9.75 10.4413 9.43393 9.87868 8.87132C9.31607 8.30871 9 7.54565 9 6.75C9 5.95435 9.31607 5.19129 9.87868 4.62868C10.4413 4.06607 11.2044 3.75 12 3.75C12.7956 3.75 13.5587 4.06607 14.1213 4.62868C14.6839 5.19129 15 5.95435 15 6.75ZM21 9.75C21 10.0455 20.9418 10.3381 20.8287 10.611C20.7157 10.884 20.5499 11.1321 20.341 11.341C20.1321 11.5499 19.884 11.7157 19.611 11.8287C19.3381 11.9418 19.0455 12 18.75 12C18.4545 12 18.1619 11.9418 17.889 11.8287C17.616 11.7157 17.3679 11.5499 17.159 11.341C16.9501 11.1321 16.7843 10.884 16.6713 10.611C16.5582 10.3381 16.5 10.0455 16.5 9.75C16.5 9.15326 16.7371 8.58097 17.159 8.15901C17.581 7.73705 18.1533 7.5 18.75 7.5C19.3467 7.5 19.919 7.73705 20.341 8.15901C20.7629 8.58097 21 9.15326 21 9.75ZM7.5 9.75C7.5 10.0455 7.4418 10.3381 7.32873 10.611C7.21566 10.884 7.04992 11.1321 6.84099 11.341C6.63206 11.5499 6.38402 11.7157 6.11104 11.8287C5.83806 11.9418 5.54547 12 5.25 12C4.95453 12 4.66195 11.9418 4.38896 11.8287C4.11598 11.7157 3.86794 11.5499 3.65901 11.341C3.45008 11.1321 3.28434 10.884 3.17127 10.611C3.0582 10.3381 3 10.0455 3 9.75C3 9.15326 3.23705 8.58097 3.65901 8.15901C4.08097 7.73705 4.65326 7.5 5.25 7.5C5.84674 7.5 6.41903 7.73705 6.84099 8.15901C7.26295 8.58097 7.5 9.15326 7.5 9.75Z" stroke="black" stroke-width="1.5" stroke-linecap="round" stroke-linejoin="round"/>
</svg>
